<?xml version="1.0" encoding="UTF-8" standalone="no"?>
<svg
   width="200px"
   height="200px"
   viewBox="0 0 200 200"
   version="1.1"
   id="svg16"
   sodipodi:docname="DronePublish.svg"
   inkscape:version="1.1.1 (3bf5ae0d25, 2021-09-20)"
   inkscape:export-filename="C:\Users\EliteBook\Desktop\DronePublish.png"
   inkscape:export-xdpi="163.10648"
   inkscape:export-ydpi="163.10648"
   xmlns:inkscape="http://www.inkscape.org/namespaces/inkscape"
   xmlns:sodipodi="http://sodipodi.sourceforge.net/DTD/sodipodi-0.dtd"
   xmlns="http://www.w3.org/2000/svg"
   xmlns:svg="http://www.w3.org/2000/svg"
   xmlns:rdf="http://www.w3.org/1999/02/22-rdf-syntax-ns#"
   xmlns:cc="http://creativecommons.org/ns#"
   xmlns:dc="http://purl.org/dc/elements/1.1/">
  <metadata
     id="metadata22">
    <rdf:RDF>
      <cc:Work
         rdf:about="">
        <dc:format>image/svg+xml</dc:format>
        <dc:type
           rdf:resource="http://purl.org/dc/dcmitype/StillImage" />
        <dc:title>Virtual Reality icons</dc:title>
      </cc:Work>
    </rdf:RDF>
  </metadata>
  <defs
     id="defs20" />
  <sodipodi:namedview
     pagecolor="#ffffff"
     bordercolor="#666666"
     borderopacity="1"
     objecttolerance="10"
     gridtolerance="10"
     guidetolerance="10"
     inkscape:pageopacity="0"
     inkscape:pageshadow="2"
     inkscape:window-width="1920"
     inkscape:window-height="998"
     id="namedview18"
     showgrid="false"
     inkscape:zoom="2.36"
     inkscape:cx="-29.237288"
     inkscape:cy="113.98305"
     inkscape:window-x="-11"
     inkscape:window-y="-11"
     inkscape:window-maximized="1"
     inkscape:current-layer="svg16"
     inkscape:pagecheckerboard="0" />
  <title
     id="title2">Virtual Reality icons</title>
  <path
     d="M 52.022142,67.344702 A 25.735668,25.735668 0 1 1 67.086087,52.68395"
     stroke-miterlimit="10"
     id="path6"
     inkscape:connector-curvature="0"
     style="fill:#e3f4d7;stroke:#220728;stroke-width:6.86284494;stroke-miterlimit:10"
     inkscape:export-filename="C:\Users\EliteBook\Desktop\path6.png"
     inkscape:export-xdpi="163.10648"
     inkscape:export-ydpi="163.10648" />
  <path
     d="M 67.326287,122.63349 A 25.735668,25.735668 0 1 1 52.605485,107.59529"
     stroke-miterlimit="10"
     id="path12"
     inkscape:connector-curvature="0"
     style="fill:#e3f4d7;stroke:#220728;stroke-width:6.86284494;stroke-miterlimit:10"
     inkscape:export-filename="C:\Users\EliteBook\Desktop\path6.png"
     inkscape:export-xdpi="163.10648"
     inkscape:export-ydpi="163.10648" />
  <path
     d="m 108.46904,52.692528 a 25.735668,25.735668 0 1 1 15.06394,14.652174"
     stroke-miterlimit="10"
     id="path10"
     inkscape:connector-curvature="0"
     style="fill:#e3f4d7;stroke:#220728;stroke-width:6.86284494;stroke-miterlimit:10"
     inkscape:export-filename="C:\Users\EliteBook\Desktop\path6.png"
     inkscape:export-xdpi="163.10648"
     inkscape:export-ydpi="163.10648" />
  <path
     d="m 122.90675,107.59529 a 25.735668,25.735668 0 1 1 -14.67791,15.0382"
     stroke-miterlimit="10"
     id="path14"
     inkscape:connector-curvature="0"
     style="fill:#e3f4d7;stroke:#220728;stroke-width:6.86284494;stroke-miterlimit:10"
     inkscape:export-filename="C:\Users\EliteBook\Desktop\path6.png"
     inkscape:export-xdpi="163.10648"
     inkscape:export-ydpi="163.10648" />
  <path
     d="M 117.73388,43.573524 105.7239,55.369038 a 25.675618,25.675618 0 0 1 -35.92699,0 L 58.03571,43.787988 A 10.911923,10.911923 0 0 0 43.169073,43.230381 10.294267,10.294267 0 0 0 42.800195,58.311483 l 11.838407,11.598208 a 25.00649,25.00649 0 0 1 0,35.729689 l -11.795514,11.60679 a 10.294267,10.294267 0 0 0 0,14.73796 v 0 a 10.706038,10.706038 0 0 0 14.978158,0 L 69.831225,120.1886 a 25.675618,25.675618 0 0 1 35.926995,0 l 11.77835,11.58106 a 10.911923,10.911923 0 0 0 14.82374,0.55761 10.294267,10.294267 0 0 0 0.36889,-15.0811 l -11.79551,-11.60679 a 25.00649,25.00649 0 0 1 0,-35.729689 L 132.7292,58.302905 a 10.294267,10.294267 0 0 0 0,-14.737959 v 0 a 10.706038,10.706038 0 0 0 -14.99532,0.0085 z"
     stroke-miterlimit="10"
     id="path4"
     inkscape:connector-curvature="0"
     style="fill:#e3f4d7;stroke:#220728;stroke-width:5.79052544;stroke-miterlimit:10"
     inkscape:export-filename="C:\Users\EliteBook\Desktop\path6.png"
     inkscape:export-xdpi="163.10648"
     inkscape:export-ydpi="163.10648" />
  <circle
     cx="87.777565"
     cy="87.778824"
     r="13.72569"
     stroke-miterlimit="10"
     id="circle8"
     style="fill:none;stroke:#48c548;stroke-width:6.86284494;stroke-miterlimit:10;stroke-opacity:1"
     inkscape:export-filename="C:\Users\EliteBook\Desktop\path6.png"
     inkscape:export-xdpi="163.10648"
     inkscape:export-ydpi="163.10648" />
  <circle
     style="fill:#8edc8e;fill-opacity:1;stroke:#8fdd8f;stroke-width:0.8792302;stroke-opacity:1"
     id="path4532"
     cx="154.2368"
     cy="164.73335"
     r="25.421602"
     inkscape:export-filename="C:\Users\EliteBook\Desktop\path6.png"
     inkscape:export-xdpi="163.10648"
     inkscape:export-ydpi="163.10648" />
  <path
     style="fill:none;stroke:#2f9d2f;stroke-width:8.78517723;stroke-linecap:round;stroke-linejoin:round;stroke-miterlimit:4;stroke-dasharray:none;stroke-opacity:1"
     d="m 130.68529,151.5722 c 18.00998,20.78075 21.1271,24.59056 21.1271,24.59056 l 37.40534,-45.71765"
     id="path4540"
     inkscape:connector-curvature="0"
     inkscape:export-filename="C:\Users\EliteBook\Desktop\path6.png"
     inkscape:export-xdpi="163.10648"
     inkscape:export-ydpi="163.10648" />
</svg>
